<!DOCTYPE svg PUBLIC "-//W3C//DTD SVG 1.1//EN" "http://www.w3.org/Graphics/SVG/1.1/DTD/svg11.dtd">
<svg xmlns="http://www.w3.org/2000/svg" viewBox="0 0 842 620">
<path d="M406.645 14.584c-3.22.78-9.062 3.102-12.981 5.162-15.202 7.988-3.953-8.594-200.664 295.792C94.275 468.302 13.14 593.901 12.7 594.646c-.669 1.133 9.292 1.352 61 1.343l61.8-.011 140.4-220.596c95.083-149.395 140.657-220.159 141.197-219.239.437.746 31.361 49.057 68.718 107.357l67.921 106-94.744.255-94.744.255-24.874 39.632c-13.681 21.798-25.024 40.021-25.207 40.495-.186.482 64.197.863 145.61.863H605.72l46.39 72.449 46.39 72.449 65.365.051 65.365.051-1.47-2.25c-.809-1.237-81.486-125.775-179.283-276.75C550.68 166.025 468.717 39.949 466.336 36.831c-14.844-19.442-37.066-27.724-59.691-22.247m25.59 477.462c-4.455 1.771-4.554 3.613-2.79 51.954.913 25.025 1.882 46.962 2.153 48.75l.493 3.25h8.954c7.87 0 8.952-.212 8.933-1.75-.012-.962-1.315-17.725-2.896-37.25s-2.795-35.589-2.697-35.697c.097-.109 19.364 16.625 42.816 37.186 45.661 40.032 47.91 41.643 53.648 38.422 5.399-3.03 5.413-2.947-9.448-55.721L517.549 492h-7.293c-7.058 0-7.277.073-6.753 2.25.298 1.238 4.362 17.957 9.032 37.153 4.67 19.197 8.373 35.012 8.228 35.144-.145.132-16.463-14.593-36.263-32.722-49.939-45.725-47.415-43.707-52.265-41.779m-206.876 3.341c-24.687 9.176-41.763 41.569-27.609 52.374l3.588 2.739 30.76.5c29.268.476 30.897.602 33.581 2.599 6.951 5.173 1.803 18.377-8.911 22.853-3.146 1.315-10.104 1.548-46.184 1.548h-42.479l-4.553 8.351c-2.503 4.594-4.552 8.664-4.552 9.045 0 .382 21.712.561 48.25.399l48.25-.295 6.723-3.185c19.188-9.09 30.445-33.874 21.813-48.025-4.387-7.192-7.012-7.731-40.369-8.29-28.062-.47-29.916-.615-31.25-2.441-2.512-3.441-.891-9.466 4.165-15.474 5.526-6.567 5.319-6.534 44.339-7.085l35.421-.5 2.31-7.5c1.271-4.125 2.319-8.062 2.329-8.75.015-.977-7.56-1.239-34.731-1.198-33.656.051-34.943.124-40.891 2.335m89.455.863c1.087 1.788 9.463 16.253 18.614 32.146l16.637 28.897-2.533 17.465C344.084 598.543 343.25 596 354.5 596c5.225 0 9.5-.392 9.5-.871 0-1.258 2.904-28.839 3.571-33.916.5-3.812 3.439-7.78 26.496-35.775C408.33 508.12 420 493.736 420 493.475c0-.261-4.267-.475-9.482-.475h-9.481l-19.66 23.559c-10.813 12.957-19.974 23.195-20.359 22.75-.385-.445-6.68-11.046-13.989-23.559L333.74 493h-20.903l1.977 3.25m245.24-1.522c-10.748 3.794-17.331 14.91-17.26 29.148.145 29.537 20.293 56.834 50.532 68.463l8.174 3.143 37.25.315c20.487.173 37.25.021 37.25-.337 0-.359-2.05-4.412-4.555-9.007l-4.554-8.356-34.274-.298-34.274-.299-8.542-4.234c-24.118-11.956-36.97-43.097-23.534-57.026 4.623-4.793 7.66-5.228 36.483-5.234 14.438-.003 26.25-.267 26.25-.586 0-.319-2.11-4.369-4.689-9l-4.688-8.42-27.562.079c-22.338.064-28.404.376-32.007 1.649" fill-rule="evenodd"/>
</svg>