<!DOCTYPE svg PUBLIC "-//W3C//DTD SVG 1.1//EN" "http://www.w3.org/Graphics/SVG/1.1/DTD/svg11.dtd">
<svg xmlns="http://www.w3.org/2000/svg" viewBox="0 0 433 433">
<path d="M213.909 59.554c-2.525.777-6.575 3.133-9 5.234s-7.109 5.885-10.409 8.408c-9.593 7.336-22.018 20.721-23.489 25.304-3.43 10.687-5.502 13.253-11.74 14.54-17.535 3.619-24.326 14.252-27.197 42.582-2.149 21.203-4.866 20.695-9.525-1.783-2.75-13.266-4.576-17.399-10.774-24.391-2.412-2.722-5.582-7.026-7.044-9.565-3.797-6.593-12.832-14.429-21.667-18.792-4.185-2.066-9.67-5.33-12.189-7.253C64.104 88.67 58.774 87.5 42 87.5c-15.838 0-17.23.379-25.354 6.904-5.123 4.116-8.303 9.789-9.58 17.096-.576 3.3-1.717 8.42-2.534 11.377C.948 135.853 7.554 144.486 21 144.4c14.349-.091 21.812-5.862 23.477-18.15.795-5.872 1.812-6.384 6.053-3.048 1.54 1.212 6.663 4.249 11.385 6.75 7.67 4.063 9.037 5.235 12.825 11 2.331 3.548 6.046 8.292 8.254 10.542 3.733 3.804 4.181 4.892 6.393 15.548 4.303 20.722 13.35 40.203 23.652 50.931 6.948 7.236 17.923 8.986 27.588 4.4 9.079-4.309 23.282-36.19 25.364-56.933 1.929-19.22 2.431-20.084 12.498-21.51 10.8-1.529 15.652-5.259 19.05-14.641 4.888-13.496 7.562-17.973 14.303-23.943C222.157 96.21 226.6 93 228.934 93c5.858 0 17.216 9.855 18.596 16.135 1.289 5.871 9.207 30.456 10.801 33.538 1.494 2.888 2.866 4.208 9.565 9.198 2.39 1.779 2.397 1.842 2.591 23.707.224 25.117.961 29.105 6.382 34.526 7.252 7.253 19.392 7.754 27.269 1.127 2.124-1.788 5.278-7.067 9.387-15.712 5.812-12.23 6.708-13.517 14.772-21.235 4.722-4.519 9.807-8.523 11.299-8.897 3.053-.767 6.076.737 5.57 2.77-.184.739-1.001 3.943-1.815 7.121-4.498 17.549 6.849 28.684 26.355 25.864 9.951-1.439 9.84-1.488 11.213 4.916 3.312 15.444 1.25 16.968-14.919 11.028-7.655-2.812-11.917-2.615-24 1.113-10.397 3.207-10.575 3.314-18.117 10.97-4.189 4.253-10.264 11.467-13.5 16.032C296.407 264.917 287.516 269.755 274 265c-6.265-2.204-9.903-2.432-15.219-.956-11.178 3.105-15.636 13.488-18.286 42.591-.809 8.875-1.749 16.862-2.089 17.75-.715 1.864-1.016 1.922-8.492 1.652-15.484-.56-21.627 5.177-22.774 21.271-.711 9.978-.094 9.17-10.14 13.271-10.991 4.486-11.936 4.399-17.327-1.598-4.493-4.997-4.673-5.434-4.672-11.339 0-3.378-.744-9.891-1.653-14.473-1.376-6.93-1.452-9.201-.454-13.5 3.466-14.927 5.545-69.945 2.991-79.146-1.488-5.358-7.329-11.027-12.911-12.53-7.982-2.149-13.679-.475-24.65 7.247-9.201 6.477-20.153 6.051-27.188-1.057-13.974-14.117-25.455-32.681-29.119-47.085-2.956-11.619-5.588-16.232-15.058-26.388-10.259-11.002-14.09-13.15-23.459-13.153-7.492-.003-13.358 2.022-20.852 7.196-2.118 1.463-6.152 3.58-8.963 4.704C6.76 162.225 4 166.369 4 174c0 13.736 13.495 20.23 32.042 15.419l7.126-1.848 1.773 2.351c.975 1.292 2.964 6.566 4.419 11.718 3.988 14.118 7.847 21.267 20.684 38.314 22.275 29.582 25.209 31.357 52.668 31.87 16.887.315 19.276.561 19.742 2.032.826 2.601-2.24 31.061-3.937 36.553-1.932 6.251-1.939 17.885-.017 27.929.825 4.311 1.5 11.327 1.5 15.591 0 10.031 1.819 15.834 7.167 22.869 2.383 3.134 5.561 7.613 7.062 9.953 3.083 4.805 7.156 7.644 13.864 9.664 2.525.761 6.575 2.436 9 3.722 6.6 3.503 19.422 3.37 26.407-.273 3.812-1.988 6.929-2.716 13.117-3.063 15.092-.846 21.4-7.407 23.546-24.488 1.318-10.485 1.844-11.311 7.209-11.319 18.176-.024 24.664-11.311 27.186-47.295.84-11.983 1.054-12.22 11.744-13.042 20.909-1.607 34.656-9.93 49.56-30.003C346.379 256.49 351.796 251 355.257 251c1.203 0 7.824 1.403 14.713 3.117 14.971 3.726 21.467 3.594 30.867-.624 15.084-6.77 19.601-19.237 19.561-53.993-.027-23.811-1.018-26.365-13.148-33.889-2.942-1.825-4.252-3.325-4.256-4.874-.016-6.639-2.191-10.224-11.847-19.531-11.873-11.443-12.968-11.812-37.647-12.662-22.256-.767-24.374-.233-37.391 9.429-10.381 7.705-10.579 7.733-12.173 1.735-1.673-6.292-4.575-10.378-10.455-14.722-5.693-4.206-6.196-5.294-12.477-26.986-7.8-26.943-41.589-46.304-67.095-38.446" fill-rule="evenodd"/>
</svg>