<?xml version="1.0" encoding="UTF-8" standalone="no"?>
<!-- Uploaded to: SVG Repo, www.svgrepo.com, Transformed by: SVG Repo Mixer Tools -->

<svg
   fill="#000000"
   version="1.1"
   width="800px"
   height="800px"
   viewBox="0 0 512 512"
   enable-background="new 0 0 512 512"
   xml:space="preserve"
   id="svg2"
   sodipodi:docname="soundcloud.svg"
   inkscape:version="1.3.2 (091e20e, 2023-11-25, custom)"
   xmlns:inkscape="http://www.inkscape.org/namespaces/inkscape"
   xmlns:sodipodi="http://sodipodi.sourceforge.net/DTD/sodipodi-0.dtd"
   xmlns="http://www.w3.org/2000/svg"
   xmlns:svg="http://www.w3.org/2000/svg"><defs
   id="defs2" /><sodipodi:namedview
   id="namedview2"
   pagecolor="#ffffff"
   bordercolor="#000000"
   borderopacity="0.25"
   inkscape:showpageshadow="2"
   inkscape:pageopacity="0.0"
   inkscape:pagecheckerboard="0"
   inkscape:deskcolor="#d1d1d1"
   inkscape:zoom="1.02625"
   inkscape:cx="400.48721"
   inkscape:cy="400"
   inkscape:window-width="1920"
   inkscape:window-height="1017"
   inkscape:window-x="-8"
   inkscape:window-y="-8"
   inkscape:window-maximized="1"
   inkscape:current-layer="svg2" />

<g
   id="SVGRepo_bgCarrier"
   stroke-width="0"
   transform="matrix(0.96210151,0,0,0.98019765,9.702031,5.0694028)" />

<g
   id="SVGRepo_tracerCarrier"
   stroke-linecap="round"
   stroke-linejoin="round"
   stroke="#fcfcfc"
   stroke-width="20.48"
   transform="matrix(0.96210151,0,0,0.98019765,9.702031,5.0694028)"> <g
   id="5151e0c8492e5103c096af88a50061c5"> <path
   display="inline"
   d="m 25.173,355.106 c 1.076,0 1.946,-0.849 2.117,-2.067 l 5.717,-44.884 -5.717,-45.889 c -0.171,-1.22 -1.041,-2.061 -2.117,-2.061 -1.091,0 -1.982,0.862 -2.125,2.061 0,0.007 -5.026,45.889 -5.026,45.889 l 5.026,44.876 c 0.143,1.198 1.035,2.075 2.125,2.075 z M 8.328,336.058 c 0,0 0,0 0,0.007 v 0 z m -2.054,1.989 c 1.041,0 1.875,-0.813 2.053,-1.982 l 4.42,-27.909 -4.42,-28.395 c -0.171,-1.169 -1.012,-1.981 -2.053,-1.981 -1.062,0 -1.896,0.819 -2.046,1.996 L 0.5,308.155 4.229,336.051 c 0.149,1.176 0.983,1.996 2.045,1.996 z m 41.534,-84.335 c -0.157,-1.454 -1.233,-2.51 -2.56,-2.51 -1.354,0 -2.424,1.063 -2.566,2.51 l -4.762,54.45 4.762,52.455 c 0.143,1.461 1.212,2.509 2.566,2.509 1.326,0 2.402,-1.048 2.552,-2.495 l 5.425,-52.469 z m 17.679,111.524 c 1.568,0 2.852,-1.269 3.001,-2.944 v 0 l 5.119,-54.123 -5.119,-55.947 c -0.149,-1.675 -1.433,-2.944 -3.001,-2.944 -1.583,0 -2.873,1.27 -3.001,2.951 l -4.513,55.94 4.513,54.123 c 0.128,1.676 1.418,2.944 3.001,2.944 z m 20.403,0.891 c 1.825,0 3.301,-1.461 3.436,-3.386 l -0.007,0.007 4.827,-54.571 -4.827,-51.913 c -0.128,-1.918 -1.604,-3.372 -3.429,-3.372 -1.839,0 -3.315,1.454 -3.429,3.387 l -4.256,51.898 4.256,54.564 c 0.114,1.925 1.59,3.386 3.429,3.386 z m 28.958,-57.929 -4.527,-84.436 c -0.114,-2.152 -1.811,-3.828 -3.864,-3.828 -2.053,0 -3.764,1.676 -3.864,3.828 l -4,84.436 4,54.564 c 0.1,2.124 1.811,3.813 3.864,3.813 2.053,0 3.75,-1.689 3.864,-3.828 v 0.015 z m 12.347,58.479 c 2.303,0 4.185,-1.868 4.299,-4.264 v 0.036 l 4.228,-54.244 -4.228,-103.74 c -0.114,-2.395 -1.996,-4.27 -4.299,-4.27 -2.317,0 -4.213,1.875 -4.313,4.27 0,0.008 -3.735,103.74 -3.735,103.74 l 3.743,54.229 c 0.092,2.375 1.988,4.243 4.305,4.243 z M 148.09,191.112 c -2.574,0 -4.655,2.067 -4.748,4.705 0,0.008 -3.472,112.402 -3.472,112.402 l 3.479,53.666 c 0.085,2.616 2.167,4.677 4.741,4.677 2.552,0 4.641,-2.061 4.741,-4.698 v 0.036 l 3.928,-53.681 -3.928,-112.409 c -0.101,-2.637 -2.189,-4.698 -4.741,-4.698 z m 21.066,175.557 c 2.809,0 5.083,-2.26 5.175,-5.14 v 0.035 l 3.622,-53.338 -3.622,-116.188 c -0.093,-2.887 -2.366,-5.146 -5.175,-5.146 -2.823,0 -5.097,2.26 -5.183,5.146 l -3.223,116.188 3.223,53.331 c 0.086,2.852 2.36,5.112 5.183,5.112 z m 21.222,-0.05 c 3.065,0 5.532,-2.452 5.611,-5.589 v 0.043 l 3.336,-52.84 -3.336,-113.229 c -0.079,-3.129 -2.546,-5.582 -5.611,-5.582 -3.072,0 -5.546,2.46 -5.617,5.582 l -2.958,113.229 2.965,52.825 c 0.064,3.109 2.538,5.561 5.61,5.561 z m 30.47,-58.371 -3.03,-109.108 c -0.071,-3.372 -2.73,-6.017 -6.045,-6.017 -3.329,0 -5.988,2.645 -6.053,6.024 l -2.702,109.093 2.702,52.49 c 0.064,3.344 2.724,5.988 6.053,5.988 3.314,0 5.974,-2.645 6.045,-6.023 v 0.043 z m 12.482,58.578 c 3.515,0 6.423,-2.901 6.48,-6.466 v 0.043 l 2.737,-52.148 -2.737,-129.824 c -0.058,-3.558 -2.966,-6.459 -6.48,-6.459 -3.521,0 -6.431,2.901 -6.487,6.459 l -2.445,129.781 c 0,0.079 2.445,52.184 2.445,52.184 0.056,3.529 2.966,6.43 6.487,6.43 z m 21.458,-207.059 c -3.771,0 -6.872,3.108 -6.93,6.908 l -2.83,141.595 2.83,51.385 c 0.058,3.75 3.158,6.851 6.93,6.851 3.764,0 6.865,-3.101 6.922,-6.9 v 0.057 l 3.08,-51.392 -3.08,-141.602 c -0.057,-3.794 -3.158,-6.902 -6.922,-6.902 z m 19.64,207.094 c 0.157,0.015 173.098,0.101 174.224,0.101 34.718,0 62.849,-28.146 62.849,-62.863 0,-34.717 -28.131,-62.849 -62.849,-62.849 -8.618,0 -16.824,1.74 -24.31,4.877 -4.997,-56.646 -52.512,-101.089 -110.448,-101.089 -14.179,0 -28.002,2.795 -40.207,7.521 -4.74,1.832 -6.01,3.729 -6.052,7.386 0,0.007 0,199.488 0,199.488 0.05,3.85 3.036,7.058 6.793,7.428 z"
   id="path1"> </path> </g> </g>

<g
   id="SVGRepo_iconCarrier"
   transform="matrix(0.96210151,0,0,0.98019765,9.702031,5.0694028)"> <g
   id="g2"> <path
   display="inline"
   d="m 25.173,355.106 c 1.076,0 1.946,-0.849 2.117,-2.067 l 5.717,-44.884 -5.717,-45.889 c -0.171,-1.22 -1.041,-2.061 -2.117,-2.061 -1.091,0 -1.982,0.862 -2.125,2.061 0,0.007 -5.026,45.889 -5.026,45.889 l 5.026,44.876 c 0.143,1.198 1.035,2.075 2.125,2.075 z M 8.328,336.058 c 0,0 0,0 0,0.007 v 0 z m -2.054,1.989 c 1.041,0 1.875,-0.813 2.053,-1.982 l 4.42,-27.909 -4.42,-28.395 c -0.171,-1.169 -1.012,-1.981 -2.053,-1.981 -1.062,0 -1.896,0.819 -2.046,1.996 L 0.5,308.155 4.229,336.051 c 0.149,1.176 0.983,1.996 2.045,1.996 z m 41.534,-84.335 c -0.157,-1.454 -1.233,-2.51 -2.56,-2.51 -1.354,0 -2.424,1.063 -2.566,2.51 l -4.762,54.45 4.762,52.455 c 0.143,1.461 1.212,2.509 2.566,2.509 1.326,0 2.402,-1.048 2.552,-2.495 l 5.425,-52.469 z m 17.679,111.524 c 1.568,0 2.852,-1.269 3.001,-2.944 v 0 l 5.119,-54.123 -5.119,-55.947 c -0.149,-1.675 -1.433,-2.944 -3.001,-2.944 -1.583,0 -2.873,1.27 -3.001,2.951 l -4.513,55.94 4.513,54.123 c 0.128,1.676 1.418,2.944 3.001,2.944 z m 20.403,0.891 c 1.825,0 3.301,-1.461 3.436,-3.386 l -0.007,0.007 4.827,-54.571 -4.827,-51.913 c -0.128,-1.918 -1.604,-3.372 -3.429,-3.372 -1.839,0 -3.315,1.454 -3.429,3.387 l -4.256,51.898 4.256,54.564 c 0.114,1.925 1.59,3.386 3.429,3.386 z m 28.958,-57.929 -4.527,-84.436 c -0.114,-2.152 -1.811,-3.828 -3.864,-3.828 -2.053,0 -3.764,1.676 -3.864,3.828 l -4,84.436 4,54.564 c 0.1,2.124 1.811,3.813 3.864,3.813 2.053,0 3.75,-1.689 3.864,-3.828 v 0.015 z m 12.347,58.479 c 2.303,0 4.185,-1.868 4.299,-4.264 v 0.036 l 4.228,-54.244 -4.228,-103.74 c -0.114,-2.395 -1.996,-4.27 -4.299,-4.27 -2.317,0 -4.213,1.875 -4.313,4.27 0,0.008 -3.735,103.74 -3.735,103.74 l 3.743,54.229 c 0.092,2.375 1.988,4.243 4.305,4.243 z M 148.09,191.112 c -2.574,0 -4.655,2.067 -4.748,4.705 0,0.008 -3.472,112.402 -3.472,112.402 l 3.479,53.666 c 0.085,2.616 2.167,4.677 4.741,4.677 2.552,0 4.641,-2.061 4.741,-4.698 v 0.036 l 3.928,-53.681 -3.928,-112.409 c -0.101,-2.637 -2.189,-4.698 -4.741,-4.698 z m 21.066,175.557 c 2.809,0 5.083,-2.26 5.175,-5.14 v 0.035 l 3.622,-53.338 -3.622,-116.188 c -0.093,-2.887 -2.366,-5.146 -5.175,-5.146 -2.823,0 -5.097,2.26 -5.183,5.146 l -3.223,116.188 3.223,53.331 c 0.086,2.852 2.36,5.112 5.183,5.112 z m 21.222,-0.05 c 3.065,0 5.532,-2.452 5.611,-5.589 v 0.043 l 3.336,-52.84 -3.336,-113.229 c -0.079,-3.129 -2.546,-5.582 -5.611,-5.582 -3.072,0 -5.546,2.46 -5.617,5.582 l -2.958,113.229 2.965,52.825 c 0.064,3.109 2.538,5.561 5.61,5.561 z m 30.47,-58.371 -3.03,-109.108 c -0.071,-3.372 -2.73,-6.017 -6.045,-6.017 -3.329,0 -5.988,2.645 -6.053,6.024 l -2.702,109.093 2.702,52.49 c 0.064,3.344 2.724,5.988 6.053,5.988 3.314,0 5.974,-2.645 6.045,-6.023 v 0.043 z m 12.482,58.578 c 3.515,0 6.423,-2.901 6.48,-6.466 v 0.043 l 2.737,-52.148 -2.737,-129.824 c -0.058,-3.558 -2.966,-6.459 -6.48,-6.459 -3.521,0 -6.431,2.901 -6.487,6.459 l -2.445,129.781 c 0,0.079 2.445,52.184 2.445,52.184 0.056,3.529 2.966,6.43 6.487,6.43 z m 21.458,-207.059 c -3.771,0 -6.872,3.108 -6.93,6.908 l -2.83,141.595 2.83,51.385 c 0.058,3.75 3.158,6.851 6.93,6.851 3.764,0 6.865,-3.101 6.922,-6.9 v 0.057 l 3.08,-51.392 -3.08,-141.602 c -0.057,-3.794 -3.158,-6.902 -6.922,-6.902 z m 19.64,207.094 c 0.157,0.015 173.098,0.101 174.224,0.101 34.718,0 62.849,-28.146 62.849,-62.863 0,-34.717 -28.131,-62.849 -62.849,-62.849 -8.618,0 -16.824,1.74 -24.31,4.877 -4.997,-56.646 -52.512,-101.089 -110.448,-101.089 -14.179,0 -28.002,2.795 -40.207,7.521 -4.74,1.832 -6.01,3.729 -6.052,7.386 0,0.007 0,199.488 0,199.488 0.05,3.85 3.036,7.058 6.793,7.428 z"
   id="path2"> </path> </g> </g>

</svg>
